<?xml version="1.0" encoding="UTF-8" standalone="no"?>
<svg
   xmlns:dc="http://purl.org/dc/elements/1.1/"
   xmlns:cc="http://creativecommons.org/ns#"
   xmlns:rdf="http://www.w3.org/1999/02/22-rdf-syntax-ns#"
   xmlns:svg="http://www.w3.org/2000/svg"
   xmlns="http://www.w3.org/2000/svg"
   xmlns:sodipodi="http://sodipodi.sourceforge.net/DTD/sodipodi-0.dtd"
   xmlns:inkscape="http://www.inkscape.org/namespaces/inkscape"
   width="512"
   height="512"
   viewBox="0 0 135.46666 135.46667"
   version="1.1"
   id="svg8"
   inkscape:version="1.0.1 (3bc2e813f5, 2020-09-07)"
   sodipodi:docname="icon.svg"
   inkscape:export-filename="C:\repos\github\plugin-workshop\assets\logo.png"
   inkscape:export-xdpi="24"
   inkscape:export-ydpi="24">
  <defs
     id="defs2" />
  <sodipodi:namedview
     id="base"
     pagecolor="#ffffff"
     bordercolor="#666666"
     borderopacity="1.0"
     inkscape:pageopacity="0.0"
     inkscape:pageshadow="2"
     inkscape:zoom="1.4"
     inkscape:cx="317.26283"
     inkscape:cy="234.33513"
     inkscape:document-units="mm"
     inkscape:current-layer="layer1"
     inkscape:document-rotation="0"
     showgrid="true"
     units="px"
     inkscape:pagecheckerboard="false"
     inkscape:window-width="2560"
     inkscape:window-height="1017"
     inkscape:window-x="-8"
     inkscape:window-y="-8"
     inkscape:window-maximized="1"
     inkscape:snap-bbox="true"
     inkscape:bbox-nodes="true">
    <sodipodi:guide
       position="0,135.46666"
       orientation="0,512"
       id="guide833" />
    <sodipodi:guide
       position="135.46666,135.46666"
       orientation="512,0"
       id="guide835" />
    <sodipodi:guide
       position="135.46666,0"
       orientation="0,-512"
       id="guide837" />
    <sodipodi:guide
       position="0,0"
       orientation="-512,0"
       id="guide839" />
    <inkscape:grid
       type="xygrid"
       id="grid841"
       spacingx="2.1166666"
       spacingy="2.1166666"
       empspacing="4" />
  </sodipodi:namedview>
  <metadata
     id="metadata5">
    <rdf:RDF>
      <cc:Work
         rdf:about="">
        <dc:format>image/svg+xml</dc:format>
        <dc:type
           rdf:resource="http://purl.org/dc/dcmitype/StillImage" />
        <dc:title></dc:title>
      </cc:Work>
    </rdf:RDF>
  </metadata>
  <g
     inkscape:label="Layer 1"
     inkscape:groupmode="layer"
     id="layer1">
    <path
       id="rect845"
       style="opacity:0.997;fill:#eebb44;fill-opacity:1;stroke-width:2.46945;stroke-miterlimit:0"
       d="M 57.76389,8.4667195 A 19.755545,19.755545 0 0 0 38.099985,28.222265 H 10.93611 c -1.3680716,0 -2.4694436,1.101373 -2.4694436,2.469444 V 58.011131 A 19.755543,19.755543 0 0 1 10.93611,57.855585 19.755543,19.755543 0 0 1 30.691655,77.61113 19.755543,19.755543 0 0 1 10.93611,97.366681 19.755543,19.755543 0 0 1 8.4666664,97.211736 v 27.318814 c 0,1.36807 1.101372,2.46945 2.4694436,2.46945 H 38.099985 A 19.755545,19.755545 0 0 1 57.855531,107.24445 19.755545,19.755545 0 0 1 77.611077,127 h 27.163873 c 1.36807,0 2.46945,-1.10138 2.46945,-2.46945 V 97.366681 A 19.755545,19.755545 0 0 0 126.99995,77.61113 19.755545,19.755545 0 0 0 107.2444,57.855585 V 30.691709 c 0,-1.368071 -1.10138,-2.469444 -2.46945,-2.469444 H 77.611077 A 19.755545,19.755545 0 0 0 57.855531,8.4667195 a 19.755545,19.755545 0 0 0 -0.09164,0 z" />
  </g>
</svg>
